<?xml version="1.0" standalone="no"?><!DOCTYPE svg PUBLIC "-//W3C//DTD SVG 1.1//EN" "http://www.w3.org/Graphics/SVG/1.1/DTD/svg11.dtd"><svg height="1024" node-id="1" sillyvg="true" template-height="1024" template-width="1024" version="1.1" viewBox="0 0 1024 1024" width="1024" xmlns="http://www.w3.org/2000/svg" xmlns:xlink="http://www.w3.org/1999/xlink"><defs node-id="63"><linearGradient gradientUnits="objectBoundingBox" id="linearGradient-1" node-id="5" spreadMethod="pad" x1="0.5" x2="0.5" y1="0" y2="1"><stop offset="0" stop-color="#f9fafc"></stop><stop offset="1" stop-color="#f0f2f5"></stop></linearGradient><linearGradient gradientUnits="objectBoundingBox" id="linearGradient-4" node-id="9" spreadMethod="pad" x1="0.5" x2="0.5" y1="-0.3250104" y2="1.4466056"><stop offset="0" stop-color="#fbfcfe"></stop><stop offset="1" stop-color="#ced6e5"></stop></linearGradient><linearGradient gradientUnits="objectBoundingBox" id="linearGradient-5" node-id="12" spreadMethod="pad" x1="0.079356186" x2="0.079356186" y1="0.22613586" y2="1"><stop offset="0" stop-color="#fcfdff"></stop><stop offset="1" stop-color="#f5f8ff"></stop></linearGradient><linearGradient gradientUnits="objectBoundingBox" id="linearGradient1" node-id="83" spreadMethod="pad" x1="0" x2="1" y1="0.5" y2="0.5"><stop offset="0" stop-color="#596680"></stop><stop offset="1" stop-color="#8f9bb3"></stop></linearGradient><linearGradient gradientUnits="objectBoundingBox" id="linearGradient-6" node-id="15" spreadMethod="pad" x1="0" x2="1" y1="0.5" y2="0.5"><stop offset="0" stop-color="#596680"></stop><stop offset="1" stop-color="#8f9bb3"></stop></linearGradient><linearGradient gradientUnits="objectBoundingBox" id="linearGradient-7" node-id="18" spreadMethod="pad" x1="0.079356186" x2="0.079356186" y1="0.22613586" y2="1"><stop offset="0" stop-color="#fcfdff"></stop><stop offset="1" stop-color="#f5f8ff"></stop></linearGradient><linearGradient gradientUnits="objectBoundingBox" id="linearGradient-10" node-id="26" spreadMethod="pad" x1="0" x2="1" y1="0.5" y2="0.5"><stop offset="0" stop-color="#e9edf3"></stop><stop offset="1" stop-color="#cbd3e1"></stop></linearGradient><linearGradient gradientUnits="objectBoundingBox" id="linearGradient-11" node-id="29" spreadMethod="pad" x1="0" x2="1" y1="0.5" y2="0.5"><stop offset="0" stop-color="#e9edf3"></stop><stop offset="1" stop-color="#cbd3e1"></stop></linearGradient><linearGradient gradientUnits="objectBoundingBox" id="linearGradient-12" node-id="32" spreadMethod="pad" x1="0.054449525" x2="0.7764964" y1="0" y2="0.8797341"><stop offset="0" stop-color="#2f74ff"></stop><stop offset="1" stop-color="#0f5eff"></stop></linearGradient><filter filterUnits="objectBoundingBox" height="885.3571" id="filter-9" node-id="22" width="885.3572" x="57.05716" y="100.40001"><feOffset color-interpolation-filters="linearRGB" dx="0" dy="43" in="SourceAlpha" result="shadowOffsetOuter1"></feOffset><feGaussianBlur color-interpolation-filters="linearRGB" in="shadowOffsetOuter1" result="shadowBlurOuter1" stdDeviation="57 57"></feGaussianBlur><feColorMatrix color-interpolation-filters="linearRGB" in="shadowBlurOuter1" result="result3" type="matrix" values="0 0 0 0 0.56 0 0 0 0 0.6066667 0 0 0 0 0.7 0 0 0 0.36166957 0"></feColorMatrix></filter></defs><g node-id="177"><path d="M 12.00 12.00 L 1012.00 12.00 L 1012.00 1012.00 L 12.00 1012.00 Z" fill="none" group-id="1" id="矩形" node-id="37" stroke="none" target-height="1000" target-width="1000" target-x="12" target-y="12"></path><g node-id="178"><path d="M 512.00 940.60 L 526.90 940.30 L 541.50 939.60 L 556.00 938.30 L 570.30 936.60 L 584.40 934.50 L 598.40 931.90 L 612.30 928.80 L 626.10 925.20 L 639.60 921.30 L 652.80 916.90 L 665.90 912.10 L 678.80 906.90 L 691.60 901.20 L 704.10 895.20 L 716.30 888.80 L 728.30 882.00 L 740.10 874.90 L 751.60 867.40 L 765.10 857.90 L 778.20 847.90 L 790.90 837.40 L 803.20 826.50 L 815.00 815.00 L 826.50 803.20 L 837.40 790.90 L 847.90 778.20 L 857.90 765.10 L 867.40 751.60 L 874.90 740.10 L 882.00 728.30 L 888.80 716.30 L 895.20 704.10 L 901.20 691.60 L 906.90 678.80 L 912.10 665.90 L 916.90 652.80 L 921.30 639.60 L 925.20 626.10 L 928.80 612.30 L 931.90 598.40 L 934.50 584.40 L 936.60 570.30 L 938.30 556.00 L 939.60 541.50 L 940.30 526.90 L 940.60 512.00 L 940.30 497.10 L 939.60 482.50 L 938.30 468.00 L 936.60 453.70 L 934.50 439.60 L 931.90 425.60 L 928.80 411.70 L 925.20 397.90 L 921.30 384.40 L 916.90 371.20 L 912.10 358.10 L 906.90 345.20 L 901.20 332.40 L 895.20 319.90 L 888.80 307.70 L 882.00 295.70 L 874.90 283.90 L 867.40 272.40 L 857.90 258.90 L 847.90 245.80 L 837.40 233.10 L 826.50 220.80 L 815.00 209.00 L 803.20 197.50 L 790.90 186.60 L 778.20 176.10 L 765.10 166.10 L 751.60 156.60 L 740.10 149.10 L 728.30 142.00 L 716.30 135.20 L 704.10 128.80 L 691.60 122.80 L 678.80 117.10 L 665.90 111.90 L 652.80 107.10 L 639.60 102.70 L 626.10 98.80 L 612.30 95.20 L 598.40 92.10 L 584.40 89.50 L 570.30 87.40 L 556.00 85.70 L 541.50 84.40 L 526.90 83.70 L 512.00 83.40 L 497.10 83.70 L 482.50 84.40 L 468.00 85.70 L 453.70 87.40 L 439.60 89.50 L 425.60 92.10 L 411.70 95.20 L 397.90 98.80 L 384.40 102.70 L 371.20 107.10 L 358.10 111.90 L 345.20 117.10 L 332.40 122.80 L 319.90 128.80 L 307.70 135.20 L 295.70 142.00 L 283.90 149.10 L 272.40 156.60 L 258.90 166.10 L 245.80 176.10 L 233.10 186.60 L 220.80 197.50 L 209.00 209.00 L 197.50 220.80 L 186.60 233.10 L 176.10 245.80 L 166.10 258.90 L 156.60 272.40 L 149.10 283.90 L 142.00 295.70 L 135.20 307.70 L 128.80 319.90 L 122.80 332.40 L 117.10 345.20 L 111.90 358.10 L 107.10 371.20 L 102.70 384.40 L 98.80 397.90 L 95.20 411.70 L 92.10 425.60 L 89.50 439.60 L 87.40 453.70 L 85.70 468.00 L 84.40 482.50 L 83.70 497.10 L 83.40 512.00 L 83.70 526.90 L 84.40 541.50 L 85.70 556.00 L 87.40 570.30 L 89.50 584.40 L 92.10 598.40 L 95.20 612.30 L 98.80 626.10 L 102.70 639.60 L 107.10 652.80 L 111.90 665.90 L 117.10 678.80 L 122.80 691.60 L 128.80 704.10 L 135.20 716.30 L 142.00 728.30 L 149.10 740.10 L 156.60 751.60 L 166.10 765.10 L 176.10 778.20 L 186.60 790.90 L 197.50 803.20 L 209.00 815.00 L 220.80 826.50 L 233.10 837.40 L 245.80 847.90 L 258.90 857.90 L 272.40 867.40 L 283.90 874.90 L 295.70 882.00 L 307.70 888.80 L 319.90 895.20 L 332.40 901.20 L 345.20 906.90 L 358.10 912.10 L 371.20 916.90 L 384.40 921.30 L 397.90 925.20 L 411.70 928.80 L 425.60 931.90 L 439.60 934.50 L 453.70 936.60 L 468.00 938.30 L 482.50 939.60 L 497.10 940.30 L 512.00 940.60 Z" fill="#ffffff" fill-rule="evenodd" group-id="1,2" id="椭圆形" node-id="39" stroke="none" target-height="857.19995" target-width="857.19995" target-x="83.4" target-y="83.4"></path><path d="M 526.20 936.80 L 527.60 937.00 L 528.70 937.70 L 529.50 938.80 L 529.80 940.20 L 529.60 941.60 L 528.90 942.80 L 527.80 943.60 L 526.40 943.90 L 512.00 944.10 L 510.60 943.90 L 509.50 943.10 L 508.70 942.00 L 508.40 940.60 L 508.70 939.20 L 509.50 938.00 L 510.60 937.30 L 512.00 937.00 L 526.20 936.80 Z M 476.60 935.60 L 491.00 936.50 L 492.40 936.80 L 493.40 937.70 L 494.10 938.80 L 494.40 940.20 L 494.00 941.60 L 493.20 942.70 L 492.00 943.40 L 490.60 943.60 L 476.20 942.70 L 474.90 942.30 L 473.80 941.40 L 473.20 940.30 L 473.00 938.80 L 473.40 937.50 L 474.20 936.40 L 475.40 935.70 L 476.60 935.60 Z M 568.50 933.30 L 569.90 933.40 L 571.10 934.00 L 572.00 935.00 L 572.50 936.30 L 572.40 937.80 L 571.80 939.00 L 570.80 939.90 L 569.40 940.40 L 555.10 942.00 L 553.70 941.90 L 552.50 941.20 L 551.70 940.20 L 551.20 938.80 L 551.40 937.40 L 552.00 936.20 L 553.10 935.30 L 554.40 934.90 L 568.50 933.30 Z M 430.50 932.90 L 431.10 931.50 L 432.00 930.60 L 433.30 930.00 L 434.70 930.00 L 448.70 932.30 L 450.00 932.80 L 451.00 933.70 L 451.60 934.90 L 451.70 936.40 L 451.20 937.70 L 450.30 938.70 L 449.00 939.30 L 447.60 939.40 L 433.40 937.00 L 432.10 936.50 L 431.10 935.50 L 430.60 934.30 L 430.50 932.90 Z M 610.30 925.60 L 611.70 925.50 L 613.00 926.00 L 614.00 926.90 L 614.60 928.20 L 614.60 929.70 L 614.20 930.90 L 613.20 931.90 L 611.90 932.50 L 597.90 935.60 L 596.40 935.60 L 595.20 935.10 L 594.20 934.10 L 593.70 932.80 L 593.70 931.40 L 594.20 930.10 L 595.10 929.20 L 596.50 928.60 L 610.30 925.60 Z M 388.90 922.70 L 389.60 921.40 L 390.60 920.50 L 391.90 920.10 L 393.30 920.20 L 407.00 923.90 L 408.30 924.60 L 409.20 925.60 L 409.70 926.80 L 409.60 928.30 L 409.00 929.60 L 408.00 930.50 L 406.70 930.90 L 405.30 930.90 L 391.40 927.10 L 390.10 926.40 L 389.20 925.40 L 388.80 924.10 L 388.90 922.70 Z M 651.10 913.70 L 652.60 913.50 L 653.90 913.90 L 655.00 914.70 L 655.70 915.90 L 655.90 917.30 L 655.50 918.60 L 654.70 919.70 L 653.50 920.50 L 639.80 924.90 L 638.30 925.10 L 637.00 924.70 L 636.00 923.80 L 635.30 922.60 L 635.20 921.20 L 635.60 919.90 L 636.40 918.80 L 637.70 918.10 L 651.10 913.70 Z M 348.50 908.30 L 349.30 907.10 L 350.40 906.40 L 351.80 906.10 L 353.20 906.30 L 366.40 911.40 L 367.60 912.20 L 368.40 913.30 L 368.70 914.60 L 368.50 916.00 L 367.80 917.20 L 366.70 918.00 L 365.40 918.30 L 364.00 918.10 L 350.50 913.00 L 349.30 912.20 L 348.60 911.00 L 348.30 909.70 L 348.50 908.30 Z M 690.50 897.80 L 691.90 897.50 L 693.20 897.70 L 694.40 898.40 L 695.20 899.60 L 695.50 901.00 L 695.30 902.30 L 694.60 903.50 L 693.50 904.30 L 680.30 910.10 L 678.90 910.40 L 677.60 910.20 L 676.40 909.40 L 675.60 908.20 L 675.30 906.80 L 675.60 905.50 L 676.30 904.40 L 677.50 903.60 L 690.50 897.80 Z M 309.80 890.00 L 310.70 888.90 L 311.90 888.20 L 313.20 888.10 L 314.60 888.50 L 327.20 894.80 L 328.40 895.70 L 329.00 896.90 L 329.20 898.20 L 328.90 899.60 L 328.00 900.70 L 326.80 901.40 L 325.50 901.60 L 324.10 901.30 L 311.30 894.80 L 310.10 893.90 L 309.50 892.70 L 309.40 891.30 L 309.80 890.00 Z M 728.10 878.00 L 729.50 877.60 L 730.80 877.60 L 732.00 878.20 L 733.00 879.30 L 733.50 880.60 L 733.40 882.00 L 732.80 883.20 L 731.70 884.20 L 719.20 891.30 L 717.90 891.70 L 716.50 891.60 L 715.30 891.00 L 714.40 889.90 L 714.00 888.50 L 714.10 887.20 L 714.70 886.00 L 715.80 885.00 L 728.10 878.00 Z M 273.00 867.80 L 274.00 866.80 L 275.30 866.30 L 276.70 866.30 L 278.00 866.80 L 289.90 874.40 L 291.00 875.40 L 291.50 876.70 L 291.60 878.00 L 291.10 879.40 L 290.10 880.40 L 288.90 881.00 L 287.50 881.00 L 286.20 880.50 L 274.00 872.80 L 273.00 871.80 L 272.50 870.50 L 272.50 869.20 L 273.00 867.80 Z M 763.60 854.60 L 764.90 854.00 L 766.20 853.90 L 767.50 854.40 L 768.60 855.30 L 769.20 856.60 L 769.20 858.00 L 768.80 859.30 L 767.80 860.30 L 756.10 868.70 L 754.70 869.20 L 753.40 869.20 L 752.10 868.70 L 751.10 867.80 L 750.50 866.40 L 750.50 865.10 L 751.00 863.80 L 752.00 862.80 L 763.60 854.60 Z M 238.70 842.20 L 239.80 841.30 L 241.10 840.90 L 242.50 841.00 L 243.70 841.70 L 254.90 850.40 L 255.80 851.50 L 256.20 852.80 L 256.20 854.10 L 255.60 855.40 L 254.50 856.40 L 253.20 856.80 L 251.80 856.70 L 250.50 856.10 L 239.20 847.20 L 238.30 846.10 L 237.90 844.80 L 238.10 843.40 L 238.70 842.20 Z M 796.50 827.70 L 797.70 827.00 L 799.10 826.80 L 800.40 827.10 L 801.60 828.00 L 802.30 829.20 L 802.50 830.60 L 802.10 831.90 L 801.30 833.00 L 790.40 842.50 L 789.20 843.20 L 787.80 843.30 L 786.50 842.90 L 785.40 842.10 L 784.70 840.80 L 784.60 839.50 L 785.00 838.10 L 785.80 837.00 L 796.50 827.70 Z M 207.10 813.20 L 208.30 812.40 L 209.60 812.20 L 211.00 812.40 L 212.20 813.20 L 222.40 823.00 L 223.20 824.20 L 223.50 825.50 L 223.30 826.90 L 222.60 828.10 L 221.40 828.90 L 220.10 829.20 L 218.70 829.00 L 217.50 828.30 L 207.10 818.30 L 206.30 817.10 L 206.10 815.70 L 206.30 814.40 L 207.10 813.20 Z M 826.60 797.80 L 827.70 796.90 L 829.00 796.60 L 830.40 796.80 L 831.60 797.50 L 832.50 798.70 L 832.80 800.00 L 832.60 801.40 L 831.90 802.60 L 822.00 813.10 L 820.80 813.90 L 819.50 814.20 L 818.10 813.90 L 816.90 813.20 L 816.10 812.00 L 815.90 810.60 L 816.10 809.30 L 816.90 808.10 L 826.60 797.80 Z M 178.60 781.30 L 179.90 780.70 L 181.20 780.50 L 182.50 780.90 L 183.60 781.80 L 192.80 792.60 L 193.50 793.90 L 193.70 795.20 L 193.30 796.50 L 192.50 797.70 L 191.20 798.40 L 189.90 798.50 L 188.60 798.20 L 187.40 797.30 L 178.10 786.40 L 177.40 785.10 L 177.30 783.80 L 177.70 782.50 L 178.60 781.30 Z M 853.60 765.00 L 854.60 764.00 L 855.90 763.50 L 857.30 763.60 L 858.60 764.20 L 859.50 765.30 L 860.00 766.60 L 859.90 767.90 L 859.30 769.20 L 850.50 780.60 L 849.40 781.50 L 848.10 782.00 L 846.80 781.90 L 845.50 781.20 L 844.60 780.10 L 844.20 778.80 L 844.30 777.50 L 844.90 776.20 L 853.60 765.00 Z M 153.30 746.70 L 154.60 746.10 L 156.00 746.20 L 157.30 746.70 L 158.30 747.70 L 166.30 759.30 L 166.90 760.60 L 167.00 762.00 L 166.50 763.30 L 165.50 764.30 L 164.20 764.90 L 162.90 764.90 L 161.60 764.50 L 160.50 763.50 L 152.30 751.60 L 151.80 750.30 L 151.80 749.00 L 152.30 747.70 L 153.30 746.70 Z M 877.20 729.60 L 878.10 728.50 L 879.30 728.00 L 880.70 727.90 L 882.00 728.40 L 883.10 729.30 L 883.70 730.50 L 883.80 731.90 L 883.30 733.30 L 875.70 745.50 L 874.70 746.50 L 873.50 747.00 L 872.10 747.10 L 870.80 746.60 L 869.70 745.60 L 869.20 744.30 L 869.20 743.00 L 869.70 741.60 L 877.20 729.60 Z M 131.60 709.70 L 133.00 709.30 L 134.40 709.50 L 135.60 710.10 L 136.50 711.20 L 143.30 723.60 L 143.80 725.00 L 143.70 726.30 L 143.10 727.50 L 142.00 728.50 L 140.70 728.90 L 139.30 728.80 L 138.10 728.20 L 137.10 727.20 L 130.20 714.60 L 129.80 713.20 L 129.90 711.80 L 130.50 710.60 L 131.60 709.70 Z M 897.10 692.10 L 897.90 690.90 L 899.10 690.20 L 900.40 690.00 L 901.80 690.30 L 903.00 691.20 L 903.70 692.40 L 903.90 693.70 L 903.60 695.10 L 897.20 708.00 L 896.30 709.10 L 895.10 709.80 L 893.80 710.00 L 892.40 709.60 L 891.30 708.70 L 890.60 707.50 L 890.50 706.20 L 890.90 704.80 L 897.10 692.10 Z M 113.80 670.80 L 115.20 670.50 L 116.50 670.80 L 117.70 671.60 L 118.40 672.70 L 124.00 685.80 L 124.30 687.20 L 124.10 688.50 L 123.40 689.60 L 122.20 690.50 L 120.80 690.80 L 119.50 690.60 L 118.30 689.80 L 117.50 688.70 L 111.80 675.40 L 111.60 674.00 L 111.80 672.70 L 112.60 671.60 L 113.80 670.80 Z M 913.20 652.70 L 913.90 651.50 L 915.00 650.70 L 916.30 650.30 L 917.70 650.50 L 918.90 651.30 L 919.70 652.40 L 920.10 653.70 L 919.90 655.10 L 914.90 668.60 L 914.10 669.80 L 913.00 670.60 L 911.70 670.90 L 910.30 670.60 L 909.10 669.90 L 908.30 668.70 L 908.00 667.40 L 908.20 666.00 L 913.20 652.70 Z M 99.90 630.20 L 101.40 630.10 L 102.70 630.50 L 103.70 631.40 L 104.40 632.70 L 108.60 646.20 L 108.80 647.60 L 108.40 648.90 L 107.60 650.00 L 106.30 650.70 L 104.90 650.90 L 103.60 650.50 L 102.50 649.70 L 101.80 648.40 L 97.50 634.70 L 97.40 633.30 L 97.80 632.00 L 98.70 630.90 L 99.90 630.20 Z M 925.20 611.90 L 925.80 610.60 L 926.80 609.70 L 928.10 609.30 L 929.50 609.30 L 930.80 609.90 L 931.70 610.90 L 932.20 612.20 L 932.10 613.60 L 928.50 627.60 L 927.90 628.80 L 926.80 629.70 L 925.60 630.10 L 924.10 630.00 L 922.90 629.40 L 922.00 628.40 L 921.50 627.10 L 921.60 625.60 L 925.20 611.90 Z M 90.20 588.50 L 91.70 588.60 L 92.90 589.10 L 93.90 590.10 L 94.40 591.40 L 97.30 605.30 L 97.30 606.70 L 96.80 608.00 L 95.90 608.90 L 94.60 609.50 L 93.10 609.60 L 91.90 609.10 L 90.90 608.10 L 90.30 606.80 L 87.40 592.70 L 87.40 591.30 L 87.90 590.00 L 88.90 589.10 L 90.20 588.50 Z M 933.10 570.10 L 933.50 568.80 L 934.40 567.80 L 935.70 567.20 L 937.10 567.10 L 938.40 567.60 L 939.40 568.50 L 940.00 569.70 L 940.10 571.10 L 937.90 585.40 L 937.40 586.70 L 936.50 587.70 L 935.20 588.20 L 933.80 588.30 L 932.50 587.80 L 931.50 586.80 L 930.90 585.60 L 930.90 584.10 L 933.10 570.10 Z M 84.70 546.00 L 86.20 546.20 L 87.40 546.80 L 88.20 547.90 L 88.60 549.30 L 90.10 563.30 L 90.00 564.80 L 89.30 566.00 L 88.30 566.90 L 87.00 567.30 L 85.50 567.20 L 84.30 566.60 L 83.40 565.60 L 83.00 564.20 L 81.50 549.90 L 81.70 548.50 L 82.30 547.30 L 83.40 546.40 L 84.70 546.00 Z M 940.20 524.40 L 941.80 524.70 L 942.90 525.50 L 943.60 526.70 L 943.80 528.10 L 943.10 542.50 L 942.70 543.90 L 941.90 544.90 L 940.70 545.60 L 939.30 545.80 L 937.90 545.40 L 936.80 544.60 L 936.10 543.40 L 936.00 542.00 L 936.70 527.80 L 937.00 526.40 L 937.80 525.30 L 939.00 524.60 L 940.20 524.40 Z M 83.50 503.20 L 84.90 503.50 L 86.00 504.30 L 86.80 505.40 L 87.00 506.80 L 87.10 521.00 L 86.80 522.40 L 86.10 523.50 L 85.00 524.30 L 83.60 524.60 L 82.20 524.40 L 81.00 523.60 L 80.30 522.50 L 80.00 521.10 L 79.90 512.00 L 79.90 506.70 L 80.20 505.30 L 81.00 504.20 L 82.10 503.50 L 83.50 503.20 Z M 939.50 481.60 L 940.90 481.80 L 942.10 482.50 L 942.90 483.60 L 943.30 485.00 L 944.00 499.40 L 943.70 500.80 L 943.00 501.90 L 941.90 502.70 L 940.50 503.00 L 939.10 502.80 L 937.90 502.00 L 937.10 500.90 L 936.80 499.60 L 936.20 485.40 L 936.40 484.00 L 937.10 482.80 L 938.10 482.00 L 939.50 481.60 Z M 82.50 463.70 L 83.00 462.40 L 83.80 461.30 L 85.00 460.70 L 86.50 460.60 L 87.80 461.00 L 88.90 461.90 L 89.50 463.10 L 89.60 464.50 L 88.30 478.60 L 87.90 480.00 L 87.10 481.10 L 85.90 481.70 L 84.50 481.90 L 83.10 481.50 L 82.00 480.70 L 81.30 479.50 L 81.20 478.10 L 82.50 463.70 Z M 934.40 439.10 L 935.80 439.20 L 937.10 439.70 L 938.00 440.70 L 938.50 442.10 L 940.60 456.30 L 940.50 457.70 L 939.90 458.90 L 938.90 459.80 L 937.50 460.30 L 936.10 460.20 L 934.90 459.60 L 934.00 458.60 L 933.50 457.20 L 931.50 443.20 L 931.50 441.80 L 932.10 440.50 L 933.10 439.60 L 934.40 439.10 Z M 89.50 421.00 L 90.00 419.70 L 91.00 418.80 L 92.30 418.30 L 93.70 418.30 L 95.00 418.90 L 95.90 419.80 L 96.50 421.10 L 96.40 422.50 L 93.70 436.40 L 93.20 437.80 L 92.20 438.70 L 91.00 439.30 L 89.60 439.30 L 88.20 438.80 L 87.30 437.80 L 86.70 436.60 L 86.70 435.20 L 89.50 421.00 Z M 925.10 397.30 L 926.50 397.20 L 927.80 397.60 L 928.80 398.50 L 929.40 399.80 L 932.90 413.80 L 933.00 415.20 L 932.50 416.50 L 931.60 417.50 L 930.30 418.10 L 928.80 418.10 L 927.60 417.60 L 926.60 416.70 L 926.00 415.40 L 922.50 401.60 L 922.40 400.20 L 922.90 398.90 L 923.80 397.90 L 925.10 397.30 Z M 100.60 379.20 L 101.30 378.00 L 102.40 377.20 L 103.70 376.80 L 105.10 376.90 L 106.40 377.60 L 107.20 378.70 L 107.60 380.00 L 107.40 381.40 L 103.30 395.00 L 102.70 396.30 L 101.60 397.10 L 100.30 397.60 L 98.90 397.40 L 97.60 396.80 L 96.80 395.70 L 96.30 394.40 L 96.40 393.00 L 100.60 379.20 Z M 911.50 356.60 L 912.90 356.40 L 914.30 356.70 L 915.40 357.40 L 916.10 358.70 L 921.00 372.20 L 921.20 373.60 L 920.90 374.90 L 920.00 376.00 L 918.80 376.70 L 917.40 376.90 L 916.10 376.60 L 915.00 375.70 L 914.30 374.50 L 909.50 361.20 L 909.20 359.80 L 909.50 358.50 L 910.30 357.30 L 911.50 356.60 Z M 116.00 338.80 L 116.80 337.70 L 117.90 336.90 L 119.30 336.70 L 120.70 337.00 L 121.80 337.80 L 122.60 339.00 L 122.80 340.30 L 122.50 341.70 L 117.00 354.80 L 116.30 356.00 L 115.10 356.70 L 113.80 357.00 L 112.40 356.80 L 111.20 356.00 L 110.40 354.90 L 110.10 353.50 L 110.40 352.10 L 116.00 338.80 Z M 894.00 317.50 L 895.40 317.10 L 896.70 317.30 L 897.90 318.00 L 898.80 319.10 L 905.00 332.10 L 905.40 333.50 L 905.10 334.90 L 904.40 336.00 L 903.30 336.90 L 901.90 337.20 L 900.60 337.00 L 899.40 336.30 L 898.50 335.10 L 892.40 322.30 L 892.10 320.90 L 892.20 319.60 L 892.90 318.40 L 894.00 317.50 Z M 135.20 300.20 L 136.20 299.10 L 137.40 298.50 L 138.80 298.40 L 140.10 298.80 L 141.20 299.80 L 141.80 301.00 L 141.90 302.30 L 141.50 303.70 L 134.70 316.10 L 133.80 317.20 L 132.60 317.90 L 131.30 318.00 L 129.90 317.70 L 128.80 316.80 L 128.20 315.60 L 128.00 314.20 L 128.40 312.80 L 135.20 300.20 Z M 872.70 280.40 L 874.00 279.90 L 875.40 279.90 L 876.60 280.40 L 877.60 281.50 L 885.10 293.80 L 885.50 295.10 L 885.40 296.50 L 884.90 297.70 L 883.80 298.70 L 882.40 299.10 L 881.10 299.00 L 879.90 298.50 L 878.90 297.40 L 871.50 285.30 L 871.00 284.00 L 871.10 282.60 L 871.60 281.40 L 872.70 280.40 Z M 158.30 263.60 L 159.40 262.60 L 160.60 262.10 L 162.00 262.20 L 163.30 262.70 L 164.30 263.80 L 164.80 265.10 L 164.70 266.40 L 164.20 267.70 L 156.20 279.40 L 155.20 280.50 L 154.00 281.00 L 152.60 281.00 L 151.30 280.50 L 150.30 279.50 L 149.70 278.20 L 149.70 276.90 L 150.20 275.50 L 158.30 263.60 Z M 847.70 245.50 L 849.00 244.90 L 850.30 244.80 L 851.60 245.20 L 852.70 246.10 L 861.40 257.60 L 862.00 258.90 L 862.00 260.30 L 861.60 261.60 L 860.60 262.60 L 859.30 263.20 L 857.90 263.30 L 856.70 262.80 L 855.60 261.80 L 847.10 250.50 L 846.40 249.30 L 846.30 247.90 L 846.80 246.60 L 847.70 245.50 Z M 184.90 229.50 L 186.10 228.70 L 187.40 228.30 L 188.70 228.50 L 190.00 229.20 L 190.80 230.30 L 191.20 231.60 L 191.00 233.00 L 190.30 234.20 L 181.30 245.10 L 180.10 246.00 L 178.90 246.40 L 177.50 246.30 L 176.20 245.60 L 175.30 244.50 L 174.90 243.20 L 175.00 241.90 L 175.70 240.60 L 184.90 229.50 Z M 819.40 213.30 L 820.60 212.60 L 821.90 212.30 L 823.30 212.60 L 824.40 213.40 L 834.20 224.00 L 834.90 225.20 L 835.10 226.60 L 834.80 227.90 L 833.90 229.10 L 832.70 229.80 L 831.30 230.00 L 830.00 229.60 L 828.90 228.80 L 819.30 218.40 L 818.50 217.20 L 818.30 215.80 L 818.60 214.50 L 819.40 213.30 Z M 214.70 198.30 L 216.00 197.60 L 217.30 197.40 L 218.60 197.60 L 219.80 198.50 L 220.50 199.70 L 220.80 201.00 L 220.50 202.30 L 219.70 203.50 L 209.50 213.40 L 208.30 214.20 L 207.00 214.50 L 205.70 214.30 L 204.50 213.50 L 203.70 212.30 L 203.40 211.00 L 203.70 209.60 L 204.50 208.40 L 214.70 198.30 Z M 788.10 184.20 L 789.20 183.30 L 790.50 182.90 L 791.90 183.10 L 793.10 183.80 L 803.90 193.30 L 804.70 194.50 L 805.10 195.80 L 804.90 197.20 L 804.10 198.40 L 803.00 199.20 L 801.60 199.50 L 800.30 199.30 L 799.10 198.60 L 788.50 189.20 L 787.60 188.10 L 787.20 186.80 L 787.40 185.40 L 788.10 184.20 Z M 247.50 170.20 L 248.80 169.60 L 250.20 169.50 L 251.40 169.90 L 252.50 170.90 L 253.20 172.10 L 253.20 173.50 L 252.80 174.80 L 251.90 175.90 L 240.80 184.70 L 239.60 185.40 L 238.20 185.50 L 236.90 185.20 L 235.80 184.30 L 235.10 183.00 L 235.00 181.60 L 235.40 180.30 L 236.30 179.20 L 247.50 170.20 Z M 754.00 158.20 L 755.00 157.20 L 756.30 156.70 L 757.60 156.70 L 758.90 157.30 L 770.60 165.70 L 771.60 166.80 L 772.00 168.10 L 771.90 169.50 L 771.30 170.70 L 770.30 171.70 L 769.00 172.10 L 767.60 172.10 L 766.30 171.50 L 754.80 163.20 L 753.90 162.10 L 753.40 160.90 L 753.40 159.50 L 754.00 158.20 Z M 283.00 145.50 L 284.30 145.00 L 285.70 145.00 L 286.90 145.60 L 287.90 146.60 L 288.40 147.90 L 288.40 149.30 L 287.80 150.50 L 286.80 151.50 L 274.90 159.20 L 273.60 159.80 L 272.20 159.80 L 271.00 159.30 L 269.90 158.30 L 269.40 156.90 L 269.40 155.60 L 269.90 154.30 L 270.90 153.30 L 283.00 145.50 Z M 717.50 135.80 L 718.40 134.70 L 719.60 134.10 L 721.00 134.00 L 722.30 134.40 L 734.80 141.60 L 735.80 142.60 L 736.40 143.80 L 736.50 145.20 L 736.00 146.50 L 735.00 147.60 L 733.80 148.20 L 732.40 148.20 L 731.10 147.70 L 718.80 140.60 L 717.80 139.70 L 717.10 138.50 L 717.00 137.10 L 717.50 135.80 Z M 320.70 124.40 L 322.10 124.00 L 323.40 124.20 L 324.60 124.90 L 325.50 126.00 L 325.80 127.40 L 325.70 128.70 L 325.00 129.90 L 323.90 130.80 L 311.30 137.30 L 309.90 137.70 L 308.60 137.60 L 307.30 136.90 L 306.40 135.80 L 306.00 134.50 L 306.20 133.10 L 306.80 131.90 L 307.90 131.00 L 320.70 124.40 Z M 678.90 117.10 L 679.70 115.90 L 680.80 115.20 L 682.20 115.00 L 683.50 115.20 L 696.70 121.20 L 697.80 122.00 L 698.50 123.20 L 698.70 124.60 L 698.40 125.90 L 697.50 127.10 L 696.30 127.80 L 695.00 128.00 L 693.60 127.60 L 680.70 121.80 L 679.50 121.00 L 678.80 119.80 L 678.60 118.50 L 678.90 117.10 Z M 360.30 107.20 L 361.70 107.00 L 363.00 107.30 L 364.10 108.10 L 364.90 109.30 L 365.10 110.70 L 364.80 112.10 L 364.00 113.20 L 362.80 113.90 L 349.60 119.10 L 348.20 119.40 L 346.90 119.10 L 345.80 118.40 L 345.00 117.20 L 344.70 115.80 L 345.00 114.50 L 345.70 113.30 L 346.90 112.50 L 360.30 107.20 Z M 638.60 102.40 L 639.30 101.20 L 640.30 100.30 L 641.60 99.90 L 643.10 100.10 L 656.70 104.70 L 657.90 105.40 L 658.70 106.50 L 659.10 107.80 L 658.90 109.20 L 658.10 110.50 L 657.10 111.30 L 655.70 111.60 L 654.30 111.40 L 640.90 106.90 L 639.70 106.20 L 638.80 105.10 L 638.40 103.80 L 638.60 102.40 Z M 401.50 94.10 L 402.90 94.00 L 404.20 94.50 L 405.20 95.40 L 405.90 96.70 L 406.00 98.10 L 405.50 99.40 L 404.60 100.40 L 403.30 101.00 L 389.70 104.90 L 388.30 105.00 L 387.00 104.60 L 385.90 103.70 L 385.30 102.50 L 385.10 101.00 L 385.50 99.70 L 386.40 98.70 L 387.70 98.00 L 401.50 94.10 Z M 597.00 91.80 L 597.60 90.50 L 598.60 89.60 L 599.80 89.10 L 601.30 89.10 L 615.30 92.30 L 616.60 92.90 L 617.50 93.90 L 618.00 95.20 L 617.90 96.60 L 617.30 97.90 L 616.30 98.80 L 615.00 99.30 L 613.60 99.20 L 599.80 96.10 L 598.50 95.50 L 597.50 94.50 L 597.00 93.30 L 597.00 91.80 Z M 443.80 85.20 L 445.20 85.30 L 446.40 85.80 L 447.40 86.80 L 447.90 88.20 L 447.80 89.60 L 447.20 90.80 L 446.20 91.80 L 444.90 92.30 L 431.00 94.70 L 429.50 94.70 L 428.30 94.20 L 427.30 93.20 L 426.80 91.90 L 426.80 90.50 L 427.30 89.20 L 428.30 88.20 L 429.60 87.70 L 443.80 85.20 Z M 554.60 85.50 L 555.10 84.10 L 556.00 83.10 L 557.20 82.50 L 558.60 82.30 L 572.90 84.10 L 574.20 84.60 L 575.20 85.50 L 575.80 86.70 L 575.90 88.10 L 575.40 89.50 L 574.50 90.50 L 573.30 91.10 L 571.90 91.20 L 557.80 89.40 L 556.50 89.00 L 555.40 88.10 L 554.80 86.90 L 554.60 85.50 Z M 486.70 80.60 L 488.10 80.80 L 489.30 81.50 L 490.10 82.60 L 490.50 83.90 L 490.30 85.40 L 489.60 86.50 L 488.50 87.30 L 487.10 87.70 L 473.00 88.80 L 471.60 88.60 L 470.40 88.00 L 469.50 86.90 L 469.10 85.50 L 469.30 84.10 L 469.90 82.90 L 471.00 82.10 L 472.40 81.70 L 486.70 80.60 Z M 515.50 79.90 L 529.90 80.20 L 531.30 80.60 L 532.40 81.40 L 533.10 82.50 L 533.30 83.90 L 533.00 85.30 L 532.20 86.40 L 531.00 87.10 L 529.60 87.40 L 515.40 87.00 L 514.00 86.70 L 512.90 85.90 L 512.20 84.80 L 511.90 83.40 L 512.20 82.00 L 513.00 80.90 L 514.10 80.10 L 515.50 79.90 Z" fill="#ebedf0" fill-opacity="0.6587904" fill-rule="nonzero" group-id="1,2" id="椭圆形" node-id="40" stroke="none" target-height="864.19995" target-width="864.1" target-x="79.9" target-y="79.9"></path><g node-id="184"><g node-id="189"><path d="M 912.00 512.00 L 911.70 528.00 L 910.70 543.80 L 909.20 559.40 L 907.00 575.00 L 904.20 590.40 L 900.90 605.70 L 896.90 620.90 L 892.40 635.80 L 887.20 650.50 L 881.60 665.10 L 875.30 679.40 L 868.50 693.40 L 861.10 707.20 L 853.30 720.70 L 844.80 733.90 L 835.80 746.80 L 826.40 759.30 L 816.40 771.50 L 805.90 783.30 L 794.80 794.80 L 783.30 805.90 L 771.50 816.40 L 759.30 826.40 L 746.80 835.80 L 733.90 844.80 L 720.70 853.30 L 707.20 861.10 L 693.40 868.50 L 679.40 875.30 L 665.10 881.60 L 650.50 887.20 L 635.80 892.40 L 620.90 896.90 L 605.70 900.90 L 590.40 904.20 L 575.00 907.00 L 559.40 909.20 L 543.80 910.70 L 528.00 911.70 L 512.00 912.00 L 496.00 911.70 L 480.20 910.70 L 464.60 909.20 L 449.00 907.00 L 433.60 904.20 L 418.30 900.90 L 403.10 896.90 L 388.20 892.40 L 373.50 887.20 L 358.90 881.60 L 344.60 875.30 L 330.60 868.50 L 316.80 861.10 L 303.30 853.30 L 290.10 844.80 L 277.20 835.80 L 264.70 826.40 L 252.50 816.40 L 240.70 805.90 L 229.20 794.80 L 218.10 783.30 L 207.60 771.50 L 197.60 759.30 L 188.20 746.80 L 179.20 733.90 L 170.70 720.70 L 162.90 707.20 L 155.50 693.40 L 148.70 679.40 L 142.40 665.10 L 136.80 650.50 L 131.60 635.80 L 127.10 620.90 L 123.10 605.70 L 119.80 590.40 L 117.00 575.00 L 114.80 559.40 L 113.30 543.80 L 112.30 528.00 L 112.00 512.00 L 112.30 496.00 L 113.30 480.20 L 114.80 464.60 L 117.00 449.00 L 119.80 433.60 L 123.10 418.30 L 127.10 403.10 L 131.60 388.20 L 136.80 373.50 L 142.40 358.90 L 148.70 344.60 L 155.50 330.60 L 162.90 316.80 L 170.70 303.30 L 179.20 290.10 L 188.20 277.20 L 197.60 264.70 L 207.60 252.50 L 218.10 240.70 L 229.20 229.20 L 240.70 218.10 L 252.50 207.60 L 264.70 197.60 L 277.20 188.20 L 290.10 179.20 L 303.30 170.70 L 316.80 162.90 L 330.60 155.50 L 344.60 148.70 L 358.90 142.40 L 373.50 136.80 L 388.20 131.60 L 403.10 127.10 L 418.30 123.10 L 433.60 119.80 L 449.00 117.00 L 464.60 114.80 L 480.20 113.30 L 496.00 112.30 L 512.00 112.00 L 528.00 112.30 L 543.80 113.30 L 559.40 114.80 L 575.00 117.00 L 590.40 119.80 L 605.70 123.10 L 620.90 127.10 L 635.80 131.60 L 650.50 136.80 L 665.10 142.40 L 679.40 148.70 L 693.40 155.50 L 707.20 162.90 L 720.70 170.70 L 733.90 179.20 L 746.80 188.20 L 759.30 197.60 L 771.50 207.60 L 783.30 218.10 L 794.80 229.20 L 805.90 240.70 L 816.40 252.50 L 826.40 264.70 L 835.80 277.20 L 844.80 290.10 L 853.30 303.30 L 861.10 316.80 L 868.50 330.60 L 875.30 344.60 L 881.60 358.90 L 887.20 373.50 L 892.40 388.20 L 896.90 403.10 L 900.90 418.30 L 904.20 433.60 L 907.00 449.00 L 909.20 464.60 L 910.70 480.20 L 911.70 496.00 L 912.00 512.00 Z" fill="url(#linearGradient-1)" fill-rule="evenodd" group-id="1,2,8,13" node-id="137" stroke="none" target-height="800" target-width="800" target-x="112" target-y="112"></path></g></g><g node-id="185"><path d="M 826.30 140.60 L 826.00 143.20 L 825.40 145.60 L 824.30 147.80 L 822.90 149.80 L 821.20 151.50 L 819.20 152.90 L 817.00 154.00 L 814.60 154.60 L 812.00 154.90 L 809.40 154.60 L 807.00 154.00 L 804.80 152.90 L 802.80 151.50 L 801.10 149.80 L 799.70 147.80 L 798.60 145.60 L 798.00 143.20 L 797.70 140.60 L 798.00 138.00 L 798.60 135.60 L 799.70 133.40 L 801.10 131.40 L 802.80 129.70 L 804.80 128.20 L 807.00 127.20 L 809.40 126.50 L 812.00 126.30 L 814.60 126.50 L 817.00 127.20 L 819.20 128.20 L 821.20 129.70 L 822.90 131.40 L 824.30 133.40 L 825.40 135.60 L 826.00 138.00 L 826.30 140.60 Z" fill="#edf0f5" fill-opacity="0.6" fill-rule="evenodd" group-id="1,2,9" id="椭圆形" node-id="45" stroke="none" target-height="28.59999" target-width="28.599976" target-x="797.7" target-y="126.3"></path></g><path d="M 883.40 162.00 L 885.30 162.30 L 887.00 163.00 L 888.50 164.10 L 889.60 165.50 L 890.30 167.20 L 890.60 169.10 L 890.60 183.40 L 904.90 183.40 L 906.80 183.70 L 908.50 184.40 L 909.90 185.50 L 911.00 187.00 L 911.70 188.70 L 912.00 190.60 L 911.70 192.50 L 911.00 194.20 L 909.90 195.60 L 908.50 196.70 L 906.80 197.50 L 904.90 197.70 L 890.60 197.70 L 890.60 212.00 L 890.30 213.90 L 889.60 215.60 L 888.50 217.10 L 887.00 218.20 L 885.30 218.90 L 883.40 219.10 L 881.50 218.90 L 879.80 218.20 L 878.40 217.10 L 877.30 215.60 L 876.50 213.90 L 876.30 212.00 L 876.30 197.70 L 862.00 197.70 L 860.10 197.50 L 858.40 196.70 L 856.90 195.60 L 855.80 194.20 L 855.10 192.50 L 854.90 190.60 L 855.10 188.70 L 855.80 187.00 L 856.90 185.50 L 858.40 184.40 L 860.10 183.70 L 862.00 183.40 L 876.30 183.40 L 876.30 169.10 L 876.50 167.20 L 877.30 165.50 L 878.40 164.10 L 879.80 163.00 L 881.50 162.30 L 883.40 162.00 Z" fill="#edf0f5" fill-opacity="0.6" fill-rule="evenodd" group-id="1,2" id="形状结合" node-id="46" stroke="none" target-height="57.100006" target-width="57.099976" target-x="854.9" target-y="162"></path><path d="M 140.60 162.00 L 142.50 162.30 L 144.20 163.00 L 145.60 164.10 L 146.70 165.50 L 147.50 167.20 L 147.70 169.10 L 147.70 183.40 L 162.00 183.40 L 163.90 183.70 L 165.60 184.40 L 167.10 185.50 L 168.20 187.00 L 168.90 188.70 L 169.10 190.60 L 168.90 192.50 L 168.20 194.20 L 167.10 195.60 L 165.60 196.70 L 163.90 197.50 L 162.00 197.70 L 147.70 197.70 L 147.70 212.00 L 147.50 213.90 L 146.70 215.60 L 145.60 217.10 L 144.20 218.20 L 142.50 218.90 L 140.60 219.10 L 138.70 218.90 L 137.00 218.20 L 135.50 217.10 L 134.40 215.60 L 133.70 213.90 L 133.40 212.00 L 133.40 197.70 L 119.10 197.70 L 117.20 197.50 L 115.50 196.70 L 114.10 195.60 L 113.00 194.20 L 112.30 192.50 L 112.00 190.60 L 112.30 188.70 L 113.00 187.00 L 114.10 185.50 L 115.50 184.40 L 117.20 183.70 L 119.10 183.40 L 133.40 183.40 L 133.40 169.10 L 133.70 167.20 L 134.40 165.50 L 135.50 164.10 L 137.00 163.00 L 138.70 162.30 L 140.60 162.00 Z" fill="#edf0f5" fill-opacity="0.6" fill-rule="evenodd" group-id="1,2" id="形状结合备份-3" node-id="47" stroke="none" target-height="57.100006" target-width="57.100006" target-x="112" target-y="162"></path><g node-id="186"><path d="M 226.30 140.60 L 226.00 143.40 L 225.20 146.00 L 223.90 148.50 L 222.10 150.70 L 219.90 152.50 L 217.50 153.80 L 214.80 154.60 L 212.00 154.90 L 209.40 154.60 L 207.00 154.00 L 204.80 152.90 L 202.80 151.50 L 201.10 149.80 L 199.70 147.80 L 198.60 145.60 L 198.00 143.20 L 197.70 140.60 L 198.00 138.00 L 198.60 135.60 L 199.70 133.40 L 201.10 131.40 L 202.80 129.70 L 204.80 128.20 L 207.00 127.20 L 209.40 126.50 L 212.00 126.30 L 214.80 126.60 L 217.50 127.40 L 219.90 128.70 L 222.10 130.50 L 223.90 132.70 L 225.20 135.10 L 226.00 137.80 L 226.30 140.60 Z" fill="#edf0f5" fill-opacity="0.6" fill-rule="evenodd" group-id="1,2,10" id="椭圆形备份-48" node-id="48" stroke="none" target-height="28.59999" target-width="28.600006" target-x="197.7" target-y="126.3"></path></g></g><path d="M 669.50 804.90 L 660.10 804.50 L 651.00 803.60 L 642.20 802.10 L 633.50 800.00 L 625.00 797.40 L 616.80 794.20 L 608.90 790.50 L 601.20 786.40 L 593.80 781.70 L 586.80 776.60 L 580.10 771.10 L 573.80 765.20 L 567.90 758.80 L 562.30 752.20 L 557.30 745.20 L 552.60 737.80 L 548.40 730.10 L 544.80 722.20 L 541.60 714.00 L 538.90 705.40 L 536.90 696.80 L 535.40 687.90 L 534.40 678.80 L 534.10 669.50 L 534.10 534.20 L 669.50 534.20 L 678.80 534.50 L 687.90 535.40 L 696.80 537.00 L 705.40 539.00 L 714.00 541.70 L 722.20 544.90 L 730.10 548.50 L 737.80 552.70 L 745.10 557.40 L 752.20 562.40 L 758.80 567.90 L 765.20 573.90 L 771.10 580.20 L 776.60 586.90 L 781.70 593.90 L 786.40 601.30 L 790.50 608.90 L 794.20 616.90 L 797.40 625.10 L 800.00 633.60 L 802.10 642.30 L 803.60 651.10 L 804.50 660.20 L 804.90 669.60 L 804.50 678.90 L 803.60 688.00 L 802.10 696.80 L 800.00 705.50 L 797.40 714.00 L 794.20 722.20 L 790.50 730.10 L 786.40 737.80 L 781.70 745.20 L 776.60 752.20 L 771.10 758.90 L 765.20 765.20 L 758.80 771.10 L 752.20 776.60 L 745.10 781.70 L 737.80 786.40 L 730.10 790.50 L 722.20 794.20 L 714.00 797.40 L 705.40 800.00 L 696.80 802.10 L 687.90 803.60 L 678.80 804.50 L 669.50 804.90 Z M 354.50 804.90 L 345.20 804.50 L 336.10 803.60 L 327.20 802.10 L 318.60 800.00 L 310.00 797.40 L 301.80 794.20 L 293.90 790.50 L 286.20 786.40 L 278.90 781.70 L 271.80 776.60 L 265.20 771.10 L 258.80 765.20 L 252.90 758.80 L 247.40 752.20 L 242.30 745.20 L 237.60 737.80 L 233.50 730.10 L 229.80 722.20 L 226.60 714.00 L 224.00 705.40 L 221.90 696.80 L 220.40 687.90 L 219.50 678.80 L 219.10 669.50 L 219.50 660.10 L 220.40 651.00 L 221.90 642.20 L 224.00 633.50 L 226.60 625.00 L 229.80 616.80 L 233.50 608.90 L 237.60 601.20 L 242.30 593.80 L 247.40 586.80 L 252.90 580.10 L 258.80 573.80 L 265.20 567.90 L 271.80 562.40 L 278.80 557.30 L 286.20 552.60 L 293.90 548.50 L 301.80 544.80 L 310.00 541.60 L 318.50 539.00 L 327.20 536.90 L 336.00 535.40 L 345.10 534.50 L 354.50 534.10 L 489.80 534.10 L 489.80 669.50 L 489.50 678.80 L 488.60 687.90 L 487.10 696.80 L 485.00 705.40 L 482.40 714.00 L 479.20 722.20 L 475.50 730.10 L 471.40 737.80 L 466.70 745.20 L 461.60 752.20 L 456.10 758.80 L 450.20 765.20 L 443.90 771.10 L 437.20 776.60 L 430.20 781.70 L 422.80 786.40 L 415.10 790.50 L 407.20 794.20 L 399.00 797.40 L 390.50 800.00 L 381.80 802.10 L 373.00 803.60 L 363.90 804.50 L 354.50 804.90 Z M 534.10 489.90 L 534.10 354.60 L 534.40 345.20 L 535.40 336.10 L 536.90 327.30 L 538.90 318.60 L 541.60 310.10 L 544.80 301.90 L 548.40 294.00 L 552.60 286.30 L 557.30 278.90 L 562.30 271.90 L 567.90 265.20 L 573.80 258.90 L 580.10 253.00 L 586.80 247.50 L 593.80 242.40 L 601.20 237.70 L 608.90 233.50 L 616.80 229.90 L 625.00 226.70 L 633.50 224.10 L 642.20 222.00 L 651.00 220.50 L 660.10 219.50 L 669.50 219.20 L 678.80 219.50 L 687.90 220.50 L 696.80 222.00 L 705.40 224.10 L 714.00 226.70 L 722.20 229.90 L 730.10 233.50 L 737.80 237.70 L 745.10 242.40 L 752.20 247.50 L 758.80 253.00 L 765.20 258.90 L 771.10 265.20 L 776.60 271.90 L 781.70 278.90 L 786.40 286.30 L 790.50 294.00 L 794.20 301.90 L 797.40 310.10 L 800.00 318.60 L 802.10 327.30 L 803.60 336.10 L 804.50 345.20 L 804.90 354.60 L 804.60 363.60 L 803.70 372.50 L 802.30 381.20 L 800.30 389.80 L 797.70 398.20 L 794.60 406.40 L 791.00 414.40 L 786.80 422.10 L 782.20 429.60 L 777.10 436.80 L 771.40 443.70 L 765.20 450.30 L 758.60 456.50 L 751.70 462.10 L 744.50 467.30 L 737.00 471.90 L 729.30 476.10 L 721.30 479.70 L 713.10 482.80 L 704.70 485.30 L 696.10 487.30 L 687.40 488.80 L 678.50 489.60 L 669.50 489.90 L 534.10 489.90 Z M 354.50 489.90 L 345.50 489.60 L 336.60 488.70 L 327.90 487.30 L 319.30 485.30 L 310.90 482.70 L 302.70 479.60 L 294.70 476.00 L 287.00 471.90 L 279.50 467.20 L 272.30 462.10 L 265.40 456.40 L 258.80 450.20 L 252.60 443.60 L 246.90 436.70 L 241.80 429.50 L 237.20 422.10 L 233.00 414.30 L 229.40 406.30 L 226.30 398.10 L 223.70 389.70 L 221.70 381.10 L 220.30 372.40 L 219.40 363.60 L 219.10 354.50 L 219.50 345.20 L 220.40 336.10 L 221.90 327.20 L 224.00 318.60 L 226.60 310.00 L 229.80 301.80 L 233.50 293.90 L 237.60 286.20 L 242.30 278.80 L 247.40 271.80 L 252.90 265.20 L 258.80 258.80 L 265.20 252.90 L 271.80 247.40 L 278.90 242.30 L 286.20 237.60 L 293.90 233.50 L 301.80 229.80 L 310.00 226.60 L 318.60 224.00 L 327.20 221.90 L 336.10 220.40 L 345.20 219.50 L 354.50 219.10 L 363.90 219.50 L 373.00 220.40 L 381.80 221.90 L 390.50 224.00 L 399.00 226.60 L 407.20 229.80 L 415.10 233.50 L 422.80 237.60 L 430.20 242.30 L 437.20 247.40 L 443.90 252.90 L 450.20 258.80 L 456.10 265.20 L 461.70 271.80 L 466.70 278.80 L 471.40 286.20 L 475.60 293.90 L 479.20 301.80 L 482.40 310.00 L 485.10 318.60 L 487.10 327.20 L 488.60 336.10 L 489.60 345.20 L 489.90 354.50 L 489.90 489.90 L 354.50 489.90 Z" fill="url(#linearGradient-4)" fill-rule="evenodd" group-id="1" id="形状" node-id="49" stroke="none" target-height="585.80005" target-width="585.80005" target-x="219.1" target-y="219.1"></path><path d="M 369.10 347.70 L 654.90 347.70 L 664.00 348.00 L 672.90 348.70 L 681.60 349.90 L 690.20 351.50 L 698.50 353.60 L 706.80 356.10 L 714.90 359.00 L 722.70 362.40 L 730.40 366.10 L 737.80 370.10 L 745.00 374.60 L 751.90 379.40 L 758.50 384.60 L 764.90 390.00 L 771.00 395.80 L 776.80 401.90 L 782.30 408.30 L 787.40 415.00 L 792.20 421.90 L 796.70 429.10 L 800.80 436.50 L 804.50 444.10 L 807.80 451.90 L 810.70 460.00 L 813.30 468.30 L 815.40 476.70 L 817.00 485.20 L 818.20 494.00 L 818.90 502.90 L 819.10 512.00 L 818.90 521.10 L 818.20 530.00 L 817.00 538.80 L 815.40 547.30 L 813.30 555.70 L 810.70 564.00 L 807.80 572.10 L 804.50 579.90 L 800.80 587.50 L 796.70 594.90 L 792.20 602.10 L 787.40 609.00 L 782.30 615.70 L 776.80 622.10 L 771.00 628.20 L 764.90 634.00 L 758.50 639.40 L 751.90 644.60 L 745.00 649.40 L 737.80 653.90 L 730.40 657.90 L 722.70 661.60 L 714.90 665.00 L 706.80 667.90 L 698.50 670.40 L 690.20 672.50 L 681.60 674.10 L 672.90 675.30 L 664.00 676.00 L 654.90 676.30 L 369.10 676.30 L 360.00 676.00 L 351.10 675.30 L 342.40 674.10 L 333.80 672.50 L 325.50 670.40 L 317.20 667.90 L 309.10 665.00 L 301.30 661.60 L 293.60 657.90 L 286.20 653.90 L 279.00 649.40 L 272.10 644.60 L 265.50 639.40 L 259.10 634.00 L 253.00 628.20 L 247.20 622.10 L 241.70 615.70 L 236.60 609.00 L 231.80 602.10 L 227.30 594.90 L 223.20 587.50 L 219.50 579.90 L 216.20 572.10 L 213.30 564.00 L 210.70 555.70 L 208.60 547.30 L 207.00 538.80 L 205.80 530.00 L 205.10 521.10 L 204.90 512.00 L 205.10 502.90 L 205.80 494.00 L 207.00 485.20 L 208.60 476.70 L 210.70 468.30 L 213.30 460.00 L 216.20 451.90 L 219.50 444.10 L 223.20 436.50 L 227.30 429.10 L 231.80 421.90 L 236.60 415.00 L 241.70 408.30 L 247.20 401.90 L 253.00 395.80 L 259.10 390.00 L 265.50 384.60 L 272.10 379.40 L 279.00 374.60 L 286.20 370.10 L 293.60 366.10 L 301.30 362.40 L 309.10 359.00 L 317.20 356.10 L 325.50 353.60 L 333.80 351.50 L 342.40 349.90 L 351.10 348.70 L 360.00 348.00 L 369.10 347.70 Z" fill="url(#linearGradient-5)" fill-rule="evenodd" group-id="1" id="矩形" node-id="50" stroke="none" target-height="328.59998" target-width="614.19995" target-x="204.9" target-y="347.7"></path><path d="M 879.70 516.40 L 881.10 516.10 L 882.50 516.50 L 883.60 517.20 L 885.10 520.10 L 888.30 523.90 L 888.70 525.20 L 888.50 526.60 L 887.90 527.80 L 886.70 528.70 L 885.40 529.10 L 884.10 529.00 L 882.80 528.30 L 880.70 526.10 L 879.00 523.70 L 877.70 521.00 L 877.40 519.60 L 877.70 518.20 L 878.50 517.10 L 879.70 516.40 Z M 906.60 518.20 L 907.90 517.50 L 909.20 517.30 L 910.50 517.60 L 911.60 518.50 L 912.40 519.80 L 912.50 521.10 L 912.20 522.40 L 911.30 523.60 L 907.10 527.30 L 905.80 528.00 L 904.50 528.10 L 903.10 527.80 L 902.00 526.90 L 901.30 525.70 L 901.10 524.30 L 901.50 523.00 L 902.40 521.90 L 906.60 518.20 Z M 808.40 508.50 L 809.80 508.70 L 811.00 509.50 L 811.70 510.60 L 812.00 512.00 L 811.70 513.40 L 811.00 514.50 L 809.80 515.30 L 808.40 515.60 L 801.30 515.60 L 799.90 515.30 L 798.80 514.50 L 798.00 513.40 L 797.70 512.00 L 798.00 510.60 L 798.80 509.50 L 799.90 508.70 L 801.30 508.50 L 808.40 508.50 Z M 837.00 508.50 L 838.40 508.70 L 839.50 509.50 L 840.30 510.60 L 840.60 512.00 L 840.30 513.40 L 839.50 514.50 L 838.40 515.30 L 837.00 515.60 L 829.90 515.60 L 828.50 515.30 L 827.30 514.50 L 826.60 513.40 L 826.30 512.00 L 826.60 510.60 L 827.30 509.50 L 828.50 508.70 L 829.90 508.50 L 837.00 508.50 Z M 858.50 501.60 L 859.30 500.40 L 860.40 499.60 L 861.70 499.30 L 863.10 499.60 L 864.30 500.30 L 865.10 501.40 L 865.40 502.80 L 865.20 504.20 L 863.90 506.90 L 862.10 509.30 L 860.00 511.40 L 858.70 512.10 L 857.40 512.30 L 856.10 511.90 L 855.00 511.00 L 854.30 509.70 L 854.10 508.40 L 854.50 507.10 L 856.70 504.70 L 858.50 501.60 Z M 871.60 489.10 L 873.00 488.70 L 874.30 488.80 L 875.50 489.50 L 876.40 490.60 L 878.70 498.10 L 878.80 499.50 L 878.30 500.80 L 877.50 501.90 L 876.20 502.50 L 874.80 502.60 L 873.50 502.20 L 872.40 501.30 L 871.80 500.00 L 869.70 492.50 L 869.80 491.10 L 870.50 490.00 L 871.60 489.10 Z" fill="#0f5eff" fill-rule="nonzero" group-id="1" id="路径-6" node-id="51" stroke="none" target-height="40.399963" target-width="114.79999" target-x="797.7" target-y="488.7"></path><g node-id="179"><path d="M 144.80 505.80 L 143.40 506.00 L 142.10 505.70 L 140.90 504.90 L 139.40 502.10 L 136.20 498.20 L 135.80 496.90 L 136.00 495.60 L 136.70 494.30 L 137.80 493.40 L 139.10 493.10 L 140.40 493.20 L 141.70 493.90 L 143.80 496.00 L 145.50 498.40 L 146.90 501.20 L 147.10 502.60 L 146.80 503.90 L 146.00 505.00 L 144.80 505.80 Z M 117.90 504.00 L 116.70 504.70 L 115.30 504.90 L 114.00 504.50 L 112.90 503.60 L 112.20 502.40 L 112.00 501.00 L 112.40 499.70 L 113.20 498.60 L 117.50 494.90 L 118.70 494.20 L 120.10 494.00 L 121.40 494.40 L 122.50 495.20 L 123.20 496.50 L 123.40 497.80 L 123.00 499.10 L 122.20 500.30 L 117.90 504.00 Z M 216.10 513.70 L 214.70 513.40 L 213.60 512.70 L 212.80 511.50 L 212.50 510.10 L 212.80 508.70 L 213.60 507.60 L 214.70 506.80 L 216.10 506.60 L 223.20 506.60 L 224.60 506.80 L 225.80 507.60 L 226.50 508.70 L 226.80 510.10 L 226.50 511.50 L 225.80 512.70 L 224.60 513.40 L 223.20 513.70 L 216.10 513.70 Z M 187.50 513.70 L 186.10 513.40 L 185.00 512.70 L 184.20 511.50 L 184.00 510.10 L 184.20 508.70 L 185.00 507.60 L 186.10 506.80 L 187.50 506.60 L 194.70 506.60 L 196.10 506.80 L 197.20 507.60 L 198.00 508.70 L 198.20 510.10 L 198.00 511.50 L 197.20 512.70 L 196.10 513.40 L 194.70 513.70 L 187.50 513.70 Z M 166.00 520.50 L 165.20 521.80 L 164.10 522.50 L 162.80 522.80 L 161.40 522.60 L 160.20 521.80 L 159.40 520.70 L 159.10 519.40 L 159.30 518.00 L 160.70 515.30 L 162.40 512.80 L 164.50 510.70 L 165.80 510.00 L 167.20 509.90 L 168.50 510.30 L 169.60 511.20 L 170.30 512.40 L 170.40 513.80 L 170.00 515.10 L 167.80 517.50 L 166.00 520.50 Z M 152.90 533.10 L 151.50 533.50 L 150.20 533.30 L 149.00 532.70 L 148.10 531.60 L 145.80 524.00 L 145.70 522.60 L 146.20 521.30 L 147.10 520.30 L 148.30 519.60 L 149.80 519.50 L 151.00 520.00 L 152.10 520.90 L 152.70 522.10 L 154.80 529.70 L 154.70 531.00 L 154.00 532.20 L 152.90 533.10 Z" fill="#fd3737" fill-rule="nonzero" group-id="1,3" id="路径-6备份-2" node-id="52" stroke="none" target-height="40.399994" target-width="114.8" target-x="112" target-y="493.1"></path></g><g node-id="180"><path d="M 758.40 560.20 L 758.40 463.80 L 787.80 471.10 L 792.70 473.20 L 796.70 476.50 L 799.50 480.80 L 801.10 485.70 L 801.30 488.40 L 801.30 535.60 L 801.10 538.30 L 800.50 540.80 L 798.30 545.50 L 794.80 549.30 L 790.30 552.00 L 758.40 560.20 Z" fill="url(#linearGradient1)" fill-rule="evenodd" group-id="1,4" id="矩形" node-id="53" stroke="none" target-height="96.400024" target-width="42.899963" target-x="758.4" target-y="463.8"></path></g><g node-id="181"><path d="M 265.60 560.20 L 265.60 463.80 L 236.20 471.10 L 231.30 473.20 L 227.30 476.50 L 224.50 480.80 L 222.90 485.70 L 222.70 488.40 L 222.70 535.60 L 223.50 540.80 L 225.70 545.50 L 229.20 549.30 L 233.70 552.00 L 265.60 560.20 Z" fill="url(#linearGradient-6)" fill-rule="evenodd" group-id="1,5" id="矩形备份-37" node-id="54" stroke="none" target-height="96.400024" target-width="42.90001" target-x="222.7" target-y="463.8"></path></g><g node-id="182"><g node-id="187"><path d="M 776.30 512.00 L 776.00 524.60 L 775.10 536.90 L 773.70 549.00 L 771.80 560.90 L 769.30 572.60 L 766.30 584.20 L 762.80 595.60 L 758.80 606.70 L 754.40 617.60 L 749.40 628.20 L 744.00 638.70 L 738.20 648.80 L 732.00 658.60 L 725.30 668.10 L 718.20 677.30 L 710.70 686.20 L 702.90 694.70 L 694.70 702.90 L 686.20 710.70 L 677.30 718.20 L 668.10 725.30 L 658.60 732.00 L 648.80 738.20 L 638.70 744.00 L 628.20 749.40 L 617.60 754.40 L 606.70 758.80 L 595.60 762.80 L 584.20 766.30 L 572.60 769.30 L 560.90 771.80 L 549.00 773.70 L 536.90 775.10 L 524.60 776.00 L 512.00 776.30 L 499.40 776.00 L 487.10 775.10 L 475.00 773.70 L 463.10 771.80 L 451.40 769.30 L 439.80 766.30 L 428.40 762.80 L 417.30 758.80 L 406.40 754.40 L 395.80 749.40 L 385.30 744.00 L 375.20 738.20 L 365.40 732.00 L 355.90 725.30 L 346.70 718.20 L 337.80 710.70 L 329.30 702.90 L 321.10 694.70 L 313.30 686.20 L 305.80 677.30 L 298.70 668.10 L 292.00 658.60 L 285.80 648.80 L 280.00 638.70 L 274.60 628.20 L 269.60 617.60 L 265.20 606.70 L 261.20 595.60 L 257.70 584.20 L 254.70 572.60 L 252.20 560.90 L 250.30 549.00 L 248.90 536.90 L 248.00 524.60 L 247.70 512.00 L 248.00 499.40 L 248.90 487.10 L 250.30 475.00 L 252.20 463.10 L 254.70 451.40 L 257.70 439.80 L 261.20 428.40 L 265.20 417.30 L 269.60 406.40 L 274.60 395.80 L 280.00 385.30 L 285.80 375.20 L 292.00 365.40 L 298.70 355.90 L 305.80 346.70 L 313.30 337.80 L 321.10 329.30 L 329.30 321.10 L 337.80 313.30 L 346.70 305.80 L 355.90 298.70 L 365.40 292.00 L 375.20 285.80 L 385.30 280.00 L 395.80 274.60 L 406.40 269.60 L 417.30 265.20 L 428.40 261.20 L 439.80 257.70 L 451.40 254.70 L 463.10 252.20 L 475.00 250.30 L 487.10 248.90 L 499.40 248.00 L 512.00 247.70 L 524.60 248.00 L 536.90 248.90 L 549.00 250.30 L 560.90 252.20 L 572.60 254.70 L 584.20 257.70 L 595.60 261.20 L 606.70 265.20 L 617.60 269.60 L 628.20 274.60 L 638.70 280.00 L 648.80 285.80 L 658.60 292.00 L 668.10 298.70 L 677.30 305.80 L 686.20 313.30 L 694.70 321.10 L 702.90 329.30 L 710.70 337.80 L 718.20 346.70 L 725.30 355.90 L 732.00 365.40 L 738.20 375.20 L 744.00 385.30 L 749.40 395.80 L 754.40 406.40 L 758.80 417.30 L 762.80 428.40 L 766.30 439.80 L 769.30 451.40 L 771.80 463.10 L 773.70 475.00 L 775.10 487.10 L 776.00 499.40 L 776.30 512.00 Z" fill="#000000" fill-rule="evenodd" filter="url(#filter-9)" group-id="1,6,11" node-id="170" stroke="none" target-height="528.6" target-width="528.6" target-x="247.7" target-y="247.7"></path></g><path d="M 776.30 512.00 L 776.00 524.60 L 775.10 536.90 L 773.70 549.00 L 771.80 560.90 L 769.30 572.60 L 766.30 584.20 L 762.80 595.60 L 758.80 606.70 L 754.40 617.60 L 749.40 628.20 L 744.00 638.70 L 738.20 648.80 L 732.00 658.60 L 725.30 668.10 L 718.20 677.30 L 710.70 686.20 L 702.90 694.70 L 694.70 702.90 L 686.20 710.70 L 677.30 718.20 L 668.10 725.30 L 658.60 732.00 L 648.80 738.20 L 638.70 744.00 L 628.20 749.40 L 617.60 754.40 L 606.70 758.80 L 595.60 762.80 L 584.20 766.30 L 572.60 769.30 L 560.90 771.80 L 549.00 773.70 L 536.90 775.10 L 524.60 776.00 L 512.00 776.30 L 499.40 776.00 L 487.10 775.10 L 475.00 773.70 L 463.10 771.80 L 451.40 769.30 L 439.80 766.30 L 428.40 762.80 L 417.30 758.80 L 406.40 754.40 L 395.80 749.40 L 385.30 744.00 L 375.20 738.20 L 365.40 732.00 L 355.90 725.30 L 346.70 718.20 L 337.80 710.70 L 329.30 702.90 L 321.10 694.70 L 313.30 686.20 L 305.80 677.30 L 298.70 668.10 L 292.00 658.60 L 285.80 648.80 L 280.00 638.70 L 274.60 628.20 L 269.60 617.60 L 265.20 606.70 L 261.20 595.60 L 257.70 584.20 L 254.70 572.60 L 252.20 560.90 L 250.30 549.00 L 248.90 536.90 L 248.00 524.60 L 247.70 512.00 L 248.00 499.40 L 248.90 487.10 L 250.30 475.00 L 252.20 463.10 L 254.70 451.40 L 257.70 439.80 L 261.20 428.40 L 265.20 417.30 L 269.60 406.40 L 274.60 395.80 L 280.00 385.30 L 285.80 375.20 L 292.00 365.40 L 298.70 355.90 L 305.80 346.70 L 313.30 337.80 L 321.10 329.30 L 329.30 321.10 L 337.80 313.30 L 346.70 305.80 L 355.90 298.70 L 365.40 292.00 L 375.20 285.80 L 385.30 280.00 L 395.80 274.60 L 406.40 269.60 L 417.30 265.20 L 428.40 261.20 L 439.80 257.70 L 451.40 254.70 L 463.10 252.20 L 475.00 250.30 L 487.10 248.90 L 499.40 248.00 L 512.00 247.70 L 524.60 248.00 L 536.90 248.90 L 549.00 250.30 L 560.90 252.20 L 572.60 254.70 L 584.20 257.70 L 595.60 261.20 L 606.70 265.20 L 617.60 269.60 L 628.20 274.60 L 638.70 280.00 L 648.80 285.80 L 658.60 292.00 L 668.10 298.70 L 677.30 305.80 L 686.20 313.30 L 694.70 321.10 L 702.90 329.30 L 710.70 337.80 L 718.20 346.70 L 725.30 355.90 L 732.00 365.40 L 738.20 375.20 L 744.00 385.30 L 749.40 395.80 L 754.40 406.40 L 758.80 417.30 L 762.80 428.40 L 766.30 439.80 L 769.30 451.40 L 771.80 463.10 L 773.70 475.00 L 775.10 487.10 L 776.00 499.40 L 776.30 512.00 Z" fill="url(#linearGradient-7)" fill-rule="evenodd" group-id="1,6,12" node-id="175" stroke="none" target-height="528.6" target-width="528.6" target-x="247.7" target-y="247.7"></path></g><path d="M 304.90 504.90 L 306.80 505.10 L 308.50 505.80 L 309.90 506.90 L 311.00 508.40 L 311.70 510.10 L 312.90 530.80 L 313.90 540.00 L 315.40 549.00 L 317.30 557.90 L 320.20 568.80 L 323.70 579.50 L 327.70 589.90 L 332.30 600.00 L 337.50 609.80 L 343.20 619.20 L 349.30 628.30 L 355.90 637.10 L 363.10 645.50 L 370.60 653.40 L 378.50 660.90 L 386.90 668.10 L 395.70 674.70 L 404.80 680.80 L 414.20 686.50 L 424.00 691.70 L 434.10 696.30 L 444.50 700.30 L 455.20 703.80 L 466.10 706.70 L 475.00 708.60 L 484.00 710.10 L 493.20 711.10 L 502.50 711.80 L 512.00 712.00 L 513.90 712.30 L 515.60 713.00 L 517.10 714.10 L 518.20 715.50 L 518.90 717.20 L 519.10 719.10 L 518.90 721.10 L 518.20 722.70 L 517.10 724.20 L 515.60 725.30 L 513.90 726.00 L 512.00 726.30 L 501.80 726.00 L 491.80 725.30 L 482.00 724.20 L 472.40 722.60 L 462.90 720.60 L 453.40 718.20 L 444.20 715.30 L 435.20 712.10 L 426.40 708.50 L 417.80 704.50 L 409.30 700.10 L 401.10 695.40 L 393.20 690.30 L 385.40 684.90 L 378.00 679.20 L 369.00 671.60 L 360.50 663.50 L 352.40 655.00 L 344.80 646.00 L 339.10 638.60 L 333.70 630.80 L 328.60 622.90 L 323.90 614.70 L 319.50 606.20 L 315.50 597.60 L 311.90 588.80 L 308.70 579.80 L 305.80 570.60 L 303.40 561.10 L 301.40 551.60 L 299.80 542.00 L 298.70 532.20 L 298.00 522.20 L 297.70 512.00 L 298.00 510.10 L 298.70 508.40 L 299.80 506.90 L 301.30 505.80 L 302.90 505.10 L 304.90 504.90 Z M 512.00 297.70 L 522.20 298.00 L 532.20 298.70 L 542.00 299.80 L 551.60 301.40 L 561.10 303.40 L 570.60 305.80 L 579.80 308.70 L 588.80 311.90 L 597.60 315.50 L 606.20 319.50 L 614.70 323.90 L 622.90 328.60 L 630.80 333.70 L 638.60 339.10 L 646.00 344.80 L 655.00 352.40 L 663.50 360.50 L 671.60 369.00 L 679.20 378.00 L 684.90 385.40 L 690.30 393.20 L 695.40 401.10 L 700.10 409.30 L 704.50 417.80 L 708.50 426.40 L 712.10 435.20 L 715.30 444.20 L 718.20 453.40 L 720.60 462.90 L 722.60 472.40 L 724.20 482.00 L 725.30 491.80 L 726.00 501.80 L 726.30 512.00 L 726.00 513.90 L 725.30 515.60 L 724.20 517.10 L 722.70 518.20 L 721.10 518.90 L 719.10 519.10 L 717.20 518.90 L 715.50 518.20 L 714.10 517.10 L 713.00 515.60 L 712.30 513.90 L 711.10 493.20 L 710.10 484.00 L 708.60 475.00 L 706.70 466.10 L 703.80 455.20 L 700.30 444.50 L 696.30 434.10 L 691.70 424.00 L 686.50 414.20 L 680.80 404.80 L 674.70 395.70 L 668.10 386.90 L 660.90 378.50 L 653.40 370.60 L 645.50 363.10 L 637.10 355.90 L 628.30 349.30 L 619.20 343.20 L 609.80 337.50 L 600.00 332.30 L 589.90 327.70 L 579.50 323.70 L 568.80 320.20 L 557.90 317.30 L 549.00 315.40 L 540.00 313.90 L 530.80 312.90 L 521.50 312.20 L 512.00 312.00 L 510.10 311.70 L 508.40 311.00 L 506.90 309.90 L 505.80 308.50 L 505.10 306.80 L 504.90 304.90 L 505.10 302.90 L 505.80 301.30 L 506.90 299.80 L 508.40 298.70 L 510.10 298.00 L 512.00 297.70 Z" fill="url(#linearGradient-10)" fill-rule="nonzero" group-id="1" id="形状" node-id="58" stroke="none" target-height="428.59998" target-width="428.59998" target-x="297.7" target-y="297.7"></path><g node-id="183"><path d="M 484.60 306.50 L 484.70 308.50 L 484.30 310.20 L 483.40 311.90 L 482.20 313.20 L 480.60 314.20 L 458.90 319.10 L 449.40 322.00 L 440.10 325.30 L 431.00 329.10 L 422.00 333.40 L 413.30 338.00 L 405.00 343.00 L 396.90 348.40 L 389.00 354.30 L 381.40 360.50 L 374.20 367.00 L 367.40 373.90 L 360.80 381.10 L 354.60 388.60 L 348.70 396.50 L 343.30 404.60 L 338.20 412.90 L 333.60 421.60 L 329.30 430.50 L 325.50 439.60 L 322.10 448.90 L 319.20 458.50 L 316.80 468.30 L 314.80 478.30 L 314.30 480.10 L 313.30 481.70 L 311.90 482.90 L 310.30 483.80 L 308.50 484.20 L 306.60 484.10 L 304.70 483.60 L 303.20 482.60 L 302.00 481.20 L 301.10 479.60 L 300.70 477.80 L 300.70 475.90 L 302.90 465.10 L 305.50 454.70 L 308.60 444.40 L 312.20 434.50 L 316.20 424.70 L 320.80 415.10 L 325.80 405.80 L 331.20 396.90 L 337.10 388.20 L 343.30 379.80 L 350.00 371.70 L 357.00 364.00 L 364.40 356.70 L 372.10 349.70 L 380.20 343.00 L 388.60 336.80 L 397.30 331.00 L 406.30 325.60 L 415.60 320.60 L 425.20 316.00 L 434.90 312.00 L 444.90 308.40 L 455.20 305.30 L 465.70 302.80 L 476.40 300.70 L 478.30 300.60 L 480.10 301.00 L 481.70 301.90 L 483.10 303.10 L 484.10 304.70 L 484.60 306.50 Z M 717.30 541.00 L 719.10 541.60 L 720.60 542.60 L 721.90 543.90 L 722.70 545.50 L 723.10 547.30 L 723.10 549.30 L 721.00 559.60 L 718.40 569.60 L 715.50 579.40 L 712.00 589.00 L 708.10 598.40 L 703.80 607.70 L 699.00 616.60 L 693.90 625.30 L 688.40 633.70 L 682.50 641.90 L 676.10 649.80 L 669.50 657.30 L 662.50 664.50 L 655.20 671.40 L 647.60 678.00 L 639.60 684.20 L 631.40 690.00 L 622.90 695.40 L 614.10 700.40 L 605.10 705.10 L 595.80 709.30 L 586.30 713.00 L 576.60 716.40 L 566.70 719.20 L 556.50 721.70 L 554.50 721.80 L 552.70 721.50 L 551.10 720.70 L 549.70 719.50 L 548.60 718.00 L 548.00 716.20 L 547.80 714.20 L 548.20 712.40 L 549.00 710.80 L 550.20 709.40 L 551.70 708.30 L 553.50 707.70 L 563.00 705.40 L 572.30 702.70 L 581.40 699.60 L 590.20 696.10 L 598.90 692.20 L 607.30 687.90 L 615.50 683.20 L 623.50 678.10 L 631.10 672.70 L 638.50 666.90 L 645.70 660.80 L 652.50 654.30 L 659.00 647.60 L 665.20 640.60 L 671.10 633.20 L 676.60 625.60 L 681.80 617.80 L 686.60 609.70 L 691.00 601.30 L 695.10 592.70 L 698.70 583.90 L 701.90 575.00 L 704.70 565.80 L 709.60 544.90 L 710.60 543.40 L 711.90 542.20 L 713.50 541.30 L 715.30 540.90 L 717.30 541.00 Z" fill="url(#linearGradient-11)" fill-rule="nonzero" group-id="1,7" id="形状" node-id="59" stroke="none" target-height="421.19998" target-width="422.39996" target-x="300.7" target-y="300.6"></path></g><path d="M 633.40 504.90 L 635.30 505.10 L 637.00 505.80 L 638.50 506.90 L 639.60 508.40 L 640.30 510.10 L 640.60 512.00 L 640.30 520.90 L 639.40 529.50 L 638.00 538.00 L 636.00 546.20 L 633.50 554.30 L 630.50 562.10 L 627.00 569.60 L 623.00 576.90 L 618.60 583.90 L 613.80 590.60 L 608.60 596.90 L 602.90 602.90 L 596.90 608.60 L 590.60 613.80 L 583.90 618.60 L 576.90 623.00 L 569.60 627.00 L 562.10 630.50 L 554.30 633.50 L 546.20 636.00 L 538.00 638.00 L 529.50 639.40 L 520.90 640.30 L 512.00 640.60 L 510.10 640.30 L 508.40 639.60 L 506.90 638.50 L 505.80 637.00 L 505.10 635.30 L 504.90 633.40 L 505.10 631.50 L 505.80 629.80 L 506.90 628.40 L 508.40 627.30 L 510.10 626.50 L 519.90 626.00 L 527.60 625.20 L 535.10 624.00 L 542.40 622.20 L 549.60 620.00 L 556.50 617.30 L 563.20 614.20 L 569.70 610.70 L 575.90 606.80 L 581.80 602.50 L 587.50 597.80 L 592.80 592.80 L 597.80 587.50 L 602.50 581.80 L 606.80 575.90 L 610.70 569.70 L 614.20 563.20 L 617.30 556.50 L 620.00 549.60 L 622.20 542.40 L 624.00 535.10 L 625.20 527.60 L 626.00 519.90 L 626.50 510.10 L 627.30 508.40 L 628.40 506.90 L 629.80 505.80 L 631.50 505.10 L 633.40 504.90 Z M 512.00 383.40 L 513.90 383.70 L 515.60 384.40 L 517.10 385.50 L 518.20 387.00 L 518.90 388.70 L 519.10 390.60 L 518.90 392.50 L 518.20 394.20 L 517.10 395.60 L 515.60 396.70 L 513.90 397.50 L 512.00 397.70 L 504.10 398.00 L 496.40 398.80 L 488.90 400.00 L 481.60 401.80 L 474.40 404.00 L 467.50 406.70 L 460.80 409.80 L 454.30 413.30 L 448.10 417.20 L 442.20 421.50 L 436.50 426.20 L 431.20 431.20 L 426.20 436.50 L 421.50 442.20 L 417.20 448.10 L 413.30 454.30 L 409.80 460.80 L 406.70 467.50 L 404.00 474.40 L 401.80 481.60 L 400.00 488.90 L 398.80 496.40 L 398.00 504.10 L 397.50 513.90 L 396.70 515.60 L 395.60 517.10 L 394.20 518.20 L 392.50 518.90 L 390.60 519.10 L 388.70 518.90 L 387.00 518.20 L 385.50 517.10 L 384.40 515.60 L 383.70 513.90 L 383.40 512.00 L 383.70 503.10 L 384.60 494.50 L 386.00 486.00 L 388.00 477.80 L 390.50 469.70 L 393.50 461.90 L 397.00 454.40 L 401.00 447.10 L 405.40 440.10 L 410.20 433.40 L 415.40 427.10 L 421.10 421.10 L 427.10 415.40 L 433.40 410.20 L 440.10 405.40 L 447.10 401.00 L 454.40 397.00 L 461.90 393.50 L 469.70 390.50 L 477.80 388.00 L 486.00 386.00 L 494.50 384.60 L 503.10 383.70 L 512.00 383.40 Z" fill="#ff3959" fill-rule="nonzero" group-id="1" id="形状" node-id="60" stroke="none" target-height="257.19998" target-width="257.19998" target-x="383.4" target-y="383.4"></path><path d="M 560.00 404.90 L 564.90 405.10 L 574.20 406.60 L 578.70 407.90 L 584.40 410.10 L 589.80 412.90 L 594.90 416.30 L 599.60 420.10 L 603.90 424.40 L 607.70 429.10 L 611.10 434.20 L 613.90 439.60 L 616.10 445.30 L 618.40 454.40 L 618.90 459.10 L 619.10 464.00 L 618.40 473.70 L 616.10 482.70 L 613.90 488.50 L 611.10 493.90 L 607.70 499.00 L 603.90 503.70 L 599.60 507.90 L 594.90 511.80 L 589.80 515.10 L 584.40 517.90 L 578.70 520.20 L 569.60 522.40 L 560.00 523.20 L 557.90 523.00 L 554.30 521.70 L 551.40 519.20 L 549.50 515.90 L 548.80 512.00 L 549.00 510.10 L 550.20 506.60 L 552.40 503.80 L 555.40 501.80 L 559.10 500.80 L 563.80 500.60 L 567.40 500.00 L 574.30 497.90 L 578.60 495.80 L 582.40 493.10 L 586.00 490.00 L 589.10 486.50 L 591.70 482.60 L 593.90 478.30 L 595.10 475.00 L 596.60 467.80 L 596.80 464.00 L 596.00 456.60 L 593.90 449.70 L 591.70 445.40 L 589.10 441.60 L 586.00 438.00 L 582.40 434.90 L 578.60 432.30 L 574.30 430.10 L 570.90 428.90 L 563.80 427.40 L 560.00 427.20 L 555.00 427.60 L 550.40 428.50 L 546.00 430.00 L 541.80 432.10 L 537.90 434.60 L 534.40 437.60 L 531.30 441.00 L 528.70 444.70 L 526.50 448.80 L 524.80 453.10 L 523.70 457.70 L 523.20 462.60 L 523.20 561.20 L 522.80 566.90 L 522.10 571.50 L 519.60 580.20 L 517.30 585.80 L 514.40 591.00 L 511.00 595.90 L 507.20 600.40 L 503.00 604.50 L 498.30 608.20 L 493.30 611.40 L 488.00 614.10 L 482.30 616.30 L 473.50 618.40 L 468.80 618.90 L 464.00 619.10 L 454.40 618.40 L 445.30 616.10 L 439.60 613.90 L 434.20 611.10 L 429.10 607.70 L 424.40 603.90 L 420.10 599.60 L 416.30 594.90 L 412.90 589.80 L 410.10 584.40 L 407.90 578.70 L 405.60 569.60 L 405.10 564.90 L 404.90 560.00 L 405.60 550.30 L 407.90 541.30 L 410.10 535.50 L 412.90 530.10 L 416.30 525.00 L 420.10 520.30 L 424.40 516.10 L 429.10 512.20 L 434.20 508.90 L 439.60 506.10 L 445.30 503.80 L 454.40 501.60 L 464.00 500.80 L 466.10 501.00 L 469.70 502.30 L 472.60 504.80 L 473.70 506.40 L 475.00 510.00 L 475.00 514.00 L 473.70 517.60 L 471.20 520.60 L 467.90 522.50 L 466.10 523.00 L 456.60 524.00 L 449.70 526.10 L 445.40 528.20 L 441.60 530.90 L 438.00 534.00 L 434.90 537.50 L 432.30 541.40 L 430.10 545.70 L 428.90 549.00 L 427.40 556.20 L 427.20 560.00 L 428.00 567.40 L 430.10 574.30 L 432.30 578.60 L 434.90 582.40 L 438.00 586.00 L 441.60 589.10 L 445.40 591.70 L 449.70 593.90 L 453.10 595.10 L 460.20 596.60 L 464.00 596.80 L 469.00 596.40 L 473.60 595.50 L 478.00 594.00 L 482.20 591.90 L 486.10 589.40 L 489.60 586.40 L 492.70 583.00 L 495.30 579.30 L 497.50 575.20 L 499.20 570.90 L 500.30 566.30 L 500.80 561.40 L 500.80 464.00 L 501.60 454.40 L 503.80 445.30 L 506.10 439.60 L 508.90 434.20 L 512.20 429.10 L 516.10 424.40 L 520.30 420.10 L 525.00 416.30 L 530.10 412.90 L 535.50 410.10 L 541.30 407.90 L 550.30 405.60 L 560.00 404.90 Z" fill="url(#linearGradient-12)" fill-rule="evenodd" group-id="1" id="形状结合" node-id="61" stroke="none" target-height="214.19998" target-width="214.19998" target-x="404.9" target-y="404.9"></path></g></svg>